<svg width="37" height="37" viewBox="0 0 37 37" fill="none" xmlns="http://www.w3.org/2000/svg">
<path fill-rule="evenodd" clip-rule="evenodd" d="M8.4789 10.8434L10.8659 8.45632C11.474 7.84829 12.4648 7.84829 13.0954 8.47884L18.5 13.8835L23.9046 8.47884C24.5352 7.84829 25.526 7.84829 26.1341 8.45632L28.5211 10.8434C29.1516 11.4739 29.1516 12.4648 28.5211 13.0953L23.1165 18.4999L28.5211 23.9046C29.1291 24.5126 29.1516 25.526 28.5436 26.134L26.1566 28.521C25.526 29.1516 24.5127 29.1291 23.9046 28.521L18.5 23.1164L13.0954 28.521C12.4873 29.1291 11.474 29.1516 10.8434 28.521L8.45638 26.134C7.84836 25.526 7.87088 24.5126 8.4789 23.9046L13.8835 18.4999L8.4789 13.0953C7.84836 12.4648 7.84836 11.4739 8.4789 10.8434Z" fill="#FDFDFD"/>
</svg>
