<svg width="60" height="54" viewBox="0 0 60 54" fill="none" xmlns="http://www.w3.org/2000/svg">
<path d="M31.8379 35.9239L36.1749 33.9418C36.4294 33.8264 36.5921 33.5719 36.5921 33.2931V29.5619C36.7842 28.8321 37.1828 28.131 37.6029 27.3891C38.3054 26.1496 39.1025 24.7439 39.1025 22.8786C39.1025 22.8077 39.1033 22.7281 39.104 22.6464C40.2674 21.8449 41.0244 20.5345 41.3535 18.7381C41.3986 18.49 41.4868 18.2191 41.5793 17.9323C41.8094 17.2226 42.0696 16.4183 41.8373 15.5316C41.6173 14.6929 41.2044 14.338 40.8287 14.1918C41.271 12.2025 42.0947 7.06769 39.6574 4.02751C38.3412 2.38592 36.314 1.62462 33.6272 1.7558C32.3577 1.31135 23.5317 -1.61413 18.8686 1.22461C17.2779 2.19237 16.341 3.70636 16.0822 5.72359C15.3187 11.6756 15.6041 13.1717 16.2879 14.1086C15.855 14.1653 15.2499 14.4491 14.9653 15.5316C14.7338 16.4191 14.994 17.2226 15.2227 17.933C15.3166 18.2198 15.4041 18.4908 15.4492 18.7388C15.7797 20.5352 16.5353 21.8456 17.6994 22.6471C17.7001 22.7288 17.7009 22.8084 17.7009 22.8793C17.7009 24.7446 18.4973 26.1504 19.2012 27.3898C19.6213 28.1317 20.0206 28.8335 20.212 29.5626V33.2938C20.212 33.5734 20.3747 33.8271 20.6285 33.9426L24.9662 35.9189C24.8357 37.0881 25.5088 38.5914 25.8859 39.3147L23.6185 52.2324C23.5819 52.4395 23.64 52.6525 23.7748 52.8145C23.9095 52.975 24.1102 53.0682 24.321 53.0682H27.7239H29.0795H32.4831C32.6931 53.0682 32.8924 52.975 33.0293 52.8145C33.1641 52.6525 33.2222 52.4403 33.1856 52.2324L30.9175 39.3147C31.2938 38.5921 31.9648 37.0917 31.8379 35.9239Z" fill="white"/>
<path d="M18.4168 34.6293C18.3702 34.4128 18.2246 34.23 18.0239 34.1361C17.8239 34.0422 17.5909 34.0458 17.3938 34.1476C17.3465 34.172 12.4934 36.6666 7.55211 38.8172C-0.146183 42.1692 -0.00854699 51.9542 0.00148897 52.3686C0.0100912 52.7557 0.326224 53.0647 0.714042 53.0647H21.5494C21.5537 53.0647 21.5587 53.0639 21.5645 53.0647C21.958 53.0647 22.2763 52.7457 22.2763 52.3521C22.2763 52.251 22.2555 52.1535 22.2161 52.0668L18.4168 34.6293Z" fill="white"/>
<path d="M59.9979 41.7002C59.9979 35.6765 55.0967 30.7754 49.073 30.7754C45.6787 30.7754 42.6414 32.3317 40.6356 34.7683C39.8829 34.3919 39.4284 34.1589 39.4141 34.1518C39.2184 34.0507 38.9854 34.0471 38.7847 34.1403C38.5847 34.2342 38.4399 34.417 38.3926 34.6335L34.5632 52.205C34.5173 52.4151 34.5696 52.6359 34.7044 52.8043C34.8391 52.9706 35.0442 53.0688 35.2585 53.0688H56.0946C56.4824 53.0688 56.7978 52.7599 56.8071 52.3728C56.81 52.2402 56.8222 51.1405 56.5899 49.6064C58.6846 47.6143 59.9979 44.8107 59.9979 41.7002ZM49.073 32.9252C53.9111 32.9252 57.8473 36.8615 57.8473 41.6995C57.8473 46.5376 53.9111 50.4738 49.073 50.4738C44.235 50.4738 40.2987 46.5376 40.2987 41.6995C40.2987 36.8615 44.235 32.9252 49.073 32.9252Z" fill="white"/>
<path d="M42.7394 41.6984L47.224 46.7056C47.4255 46.9307 47.7137 47.0604 48.0155 47.0633C48.0183 47.0633 48.0219 47.0633 48.0248 47.0633C48.3237 47.0633 48.609 46.9386 48.8133 46.7192L55.5094 39.5005C55.913 39.0654 55.8879 38.3851 55.4528 37.9808C55.0177 37.5765 54.3374 37.6016 53.9331 38.0381L48.0384 44.3916L44.3409 40.2632C43.9452 39.8216 43.2649 39.7829 42.8226 40.1801C42.3803 40.5758 42.343 41.2554 42.7394 41.6984Z" fill="white"/>
</svg>
