<svg width="32" height="28" viewBox="0 0 32 28" fill="none" xmlns="http://www.w3.org/2000/svg">
<path d="M0.230539 23.2968L5.25482 8.91279C5.78796 7.38183 7.22724 6.35324 8.83544 6.35324H27.6385C27.5158 5.25376 26.5956 4.39185 25.4639 4.39185H13.8701C13.3621 4.39185 12.9506 3.97391 12.9506 3.46589V2.20558C12.9506 0.990249 11.9667 0 10.7514 0H2.19915C0.983852 0 0 0.990249 0 2.20558" fill="white"/>
<path d="M19.3951 16.7148H12.9648V18.0009H19.3951V16.7148Z" fill="white"/>
<path d="M30.5731 8.7016C30.0973 8.02643 29.3514 7.64062 28.5347 7.64062H8.83234C7.77137 7.64062 6.81966 8.32223 6.466 9.33819L1.44396 23.7163C1.16102 24.5394 1.30251 25.4396 1.82336 26.1084C2.3249 26.7514 3.07084 27.0729 3.81673 27.0022H23.4741C23.5641 27.015 23.6541 27.0215 23.7442 27.0215C24.6894 27.0215 25.5446 26.3977 25.8855 25.4203L30.9011 11.0422C31.1776 10.2577 31.0554 9.37677 30.5731 8.7016ZM16.1737 23.144C12.8042 23.144 10.0649 20.4047 10.0649 17.0353C10.0649 13.6658 12.8042 10.9265 16.1737 10.9265C19.5431 10.9265 22.2824 13.6658 22.2824 17.0353C22.2824 20.4047 19.5431 23.144 16.1737 23.144Z" fill="white"/>
</svg>
