<svg width="7" height="24" viewBox="0 0 7 24" fill="none" xmlns="http://www.w3.org/2000/svg">
<path d="M3.18805 6.3761C4.94582 6.3761 6.3761 4.94582 6.3761 3.18805C6.3761 1.43028 4.94582 0 3.18805 0C1.42997 0 0 1.43028 0 3.18805C0 4.94582 1.42997 6.3761 3.18805 6.3761Z" fill="white"/>
<path d="M3.18805 8.8125C1.43028 8.8125 0 10.2425 0 12.0006C0 13.7583 1.42997 15.1886 3.18805 15.1886C4.94582 15.1886 6.3761 13.7583 6.3761 12.0006C6.3761 10.2428 4.94582 8.8125 3.18805 8.8125Z" fill="white"/>
<path d="M3.18805 17.623C1.42997 17.623 0 19.0536 0 20.8111C0 22.5689 1.42997 23.9991 3.18805 23.9991C4.94582 23.9991 6.3761 22.5689 6.3761 20.8111C6.3761 19.0536 4.94582 17.623 3.18805 17.623Z" fill="white"/>
</svg>
