<svg width="60" height="55" viewBox="0 0 60 55" fill="none" xmlns="http://www.w3.org/2000/svg">
<path d="M32.1738 36.7029L36.5567 34.699C36.8139 34.5831 36.9783 34.3252 36.9783 34.0441V30.2734C37.1725 29.5359 37.5753 28.8274 37.9998 28.0776C38.7098 26.8243 39.5153 25.4037 39.5153 23.5187C39.5153 23.4477 39.5161 23.3673 39.5168 23.284C40.6926 22.4748 41.4576 21.1505 41.7901 19.335C41.8357 19.0844 41.9248 18.8112 42.0183 18.5215C42.2508 17.8043 42.5138 16.9922 42.2791 16.0946C42.0567 15.247 41.6394 14.8891 41.2598 14.7406C41.7068 12.7302 42.5392 7.54105 40.0761 4.4694C38.746 2.8097 36.6972 2.04106 33.982 2.17291C32.699 1.72448 23.7797 -1.23271 19.0672 1.63537C17.4596 2.61482 16.5128 4.14412 16.2512 6.18271C15.4797 12.1978 15.768 13.709 16.4591 14.6565C16.0216 14.7131 15.4102 15.0007 15.1225 16.0938C14.8886 16.9907 15.1515 17.8028 15.3826 18.5207C15.4775 18.8105 15.5659 19.0836 15.6115 19.3343C15.9455 21.1497 16.7091 22.474 17.8856 23.2847C17.8863 23.3665 17.887 23.4477 17.887 23.518C17.887 25.403 18.6919 26.8236 19.4033 28.0769C19.8278 28.8267 20.2313 29.5359 20.4248 30.2727V34.0434C20.4248 34.3252 20.5892 34.5824 20.8457 34.6983L25.2293 36.6963C25.0974 37.8779 25.7777 39.3963 26.1587 40.1273L23.8673 53.1818C23.8304 53.3912 23.8891 53.6063 24.0253 53.7708C24.1614 53.9323 24.3643 54.0272 24.5773 54.0272H28.0162H29.3861H32.8258C33.0381 54.0272 33.2395 53.9323 33.3778 53.7708C33.514 53.6063 33.5727 53.3919 33.5358 53.1818L31.2436 40.1273C31.624 39.3985 32.302 37.883 32.1738 36.7029Z" fill="white"/>
<path d="M18.6118 35.3953C18.5647 35.1758 18.4176 34.9918 18.2148 34.8969C18.0127 34.802 17.7772 34.8049 17.578 34.9085C17.5302 34.9324 12.6257 37.4542 7.63208 39.6275C-0.147013 43.015 -0.00864369 52.9037 0.00149854 53.3224C0.0101919 53.7129 0.329672 54.0258 0.721597 54.0258H21.7776C21.7819 54.0258 21.787 54.0244 21.7928 54.0258C22.1905 54.0258 22.5122 53.7035 22.5122 53.3057C22.5122 53.2036 22.4912 53.1051 22.4513 53.0174L18.6118 35.3953Z" fill="white"/>
<path d="M57.4676 29.6289H43.0931C41.6949 29.6289 40.5576 30.7663 40.5576 32.1645V35.2767C40.1084 35.0499 39.8483 34.9166 39.8367 34.9108C39.639 34.8087 39.4035 34.8051 39.2007 34.8992C38.9986 34.9941 38.8522 35.1782 38.8044 35.3977L34.9344 53.1553C34.8881 53.3675 34.9409 53.5899 35.0771 53.7609C35.2133 53.929 35.4205 54.0282 35.6371 54.0282H56.6953C57.0872 54.0282 57.406 53.7153 57.4154 53.3248C57.4176 53.232 57.4241 52.6728 57.3516 51.8281H57.4676C58.8657 51.8281 60.0031 50.6907 60.0031 49.2925V32.1645C60.0031 30.767 58.8657 29.6289 57.4676 29.6289ZM57.8298 49.2925C57.8298 49.4917 57.6668 49.6547 57.4676 49.6547H43.0931C42.8939 49.6547 42.7309 49.4917 42.7309 49.2925V32.1645C42.7309 31.9652 42.8939 31.8022 43.0931 31.8022H57.4676C57.6668 31.8022 57.8298 31.9652 57.8298 32.1645V49.2925Z" fill="white"/>
<path d="M54.5724 34.8027H45.9812C45.3814 34.8027 44.8945 35.2896 44.8945 35.8894C44.8945 36.4892 45.3814 36.9761 45.9812 36.9761H54.5717C55.1715 36.9761 55.6583 36.4892 55.6583 35.8894C55.6583 35.2896 55.1722 34.8027 54.5724 34.8027Z" fill="white"/>
<path d="M54.5724 39.6602H45.9812C45.3814 39.6602 44.8945 40.147 44.8945 40.7468C44.8945 41.3467 45.3814 41.8335 45.9812 41.8335H54.5717C55.1715 41.8335 55.6583 41.3467 55.6583 40.7468C55.6583 40.147 55.1722 39.6602 54.5724 39.6602Z" fill="white"/>
<path d="M54.5724 44.5195H45.9812C45.3814 44.5195 44.8945 45.0064 44.8945 45.6062C44.8945 46.206 45.3814 46.6929 45.9812 46.6929H54.5717C55.1715 46.6929 55.6583 46.206 55.6583 45.6062C55.6583 45.0064 55.1722 44.5195 54.5724 44.5195Z" fill="white"/>
</svg>
