<svg width="33" height="19" viewBox="0 0 33 19" fill="none" xmlns="http://www.w3.org/2000/svg">
<path d="M2.30233 0C1.8559 0 1.44334 0.120176 1.09121 0.322618L15.3488 10.969C16.0932 11.5248 16.8817 11.5247 17.6272 10.969L31.9088 0.322618C31.5567 0.120176 31.1441 0 30.6977 0H2.30233ZM0.131904 1.42397C0.0474317 1.64674 0 1.88573 0 2.13596V16.3757C0 17.559 1.02683 18.5116 2.30233 18.5116H30.6977C31.9732 18.5116 33 17.559 33 16.3757V2.13596C33 1.88573 32.9526 1.64674 32.8681 1.42397L18.5865 12.0815C17.3492 13.0038 15.6267 13.0052 14.3895 12.0815L0.131904 1.42397Z" fill="white"/>
</svg>
