<svg width="22" height="22" viewBox="0 0 22 22" fill="none" xmlns="http://www.w3.org/2000/svg">
<path d="M6.80395 2.04509C7.27533 2.51621 7.74832 2.98598 8.21756 3.45924C9.04503 4.29395 9.04664 5.26755 8.22239 6.09582C7.63115 6.69001 7.04339 7.28769 6.44062 7.86981C6.28135 8.02345 6.26875 8.15001 6.34946 8.34361C6.74523 9.29415 7.31743 10.1358 7.96122 10.9274C9.25525 12.5182 10.7187 13.9302 12.464 15.0258C12.8378 15.2604 13.2513 15.4312 13.6406 15.6425C13.8409 15.7511 13.9782 15.7165 14.1385 15.5508C14.7282 14.9414 15.332 14.3453 15.9345 13.7482C16.7236 12.9663 17.7141 12.9647 18.5067 13.7498C19.4752 14.7092 20.4395 15.6731 21.3997 16.6405C22.2051 17.4519 22.1987 18.4435 21.3887 19.2608C20.8414 19.8131 20.263 20.3373 19.7455 20.916C18.9923 21.7582 18.0474 22.0309 16.9666 21.9713C15.3956 21.885 13.9463 21.3638 12.5506 20.6854C9.4483 19.1776 6.79617 17.0881 4.57761 14.4472C2.93716 12.4946 1.58146 10.3696 0.689912 7.96956C0.258749 6.8088 -0.0496075 5.61988 0.0442401 4.36232C0.102158 3.58634 0.393621 2.92619 0.965555 2.38187C1.57959 1.79707 2.16466 1.18196 2.76957 0.587237C3.56165 -0.191698 4.55241 -0.190089 5.34636 0.589382C5.83651 1.07042 6.31835 1.5595 6.80395 2.04509Z" fill="white"/>
</svg>
