<svg width="25" height="25" viewBox="0 0 25 25" fill="none" xmlns="http://www.w3.org/2000/svg">
<path fill-rule="evenodd" clip-rule="evenodd" d="M0 14.172V10.7962C0 9.93631 0.700637 9.23567 1.59236 9.23567H9.23567V1.59236C9.23567 0.700637 9.93631 0 10.7962 0H14.172C15.0637 0 15.7643 0.700637 15.7643 1.59236V9.23567H23.4076C24.2675 9.23567 25 9.93631 25 10.7962V14.172C25 15.0637 24.2675 15.7643 23.4076 15.7643H15.7643V23.4076C15.7643 24.2675 15.0637 25 14.172 25H10.7962C9.93631 25 9.23567 24.2675 9.23567 23.4076V15.7643H1.59236C0.700637 15.7643 0 15.0637 0 14.172Z" fill="#FDFDFD"/>
</svg>
