<svg width="27" height="31" viewBox="0 0 27 31" fill="none" xmlns="http://www.w3.org/2000/svg">
<path d="M16.4752 5.32883H20.8078C20.762 5.26978 20.7188 5.20908 20.665 5.1552L16.0574 0.542707C16.0049 0.490161 15.9448 0.447563 15.8867 0.402344V4.73975C15.8867 5.06448 16.1508 5.32883 16.4752 5.32883Z" fill="white"/>
<path d="M12.9761 23.6944C12.9554 23.4748 12.945 23.2547 12.945 23.0335C12.945 22.8122 12.9554 22.5916 12.9761 22.3726L11.402 21.4635L14.3444 16.363L15.9236 17.2776C16.281 17.023 16.662 16.8035 17.0643 16.6193V14.795H21.1847V6.51H16.477C15.5035 6.51 14.7116 5.71728 14.7116 4.74278V0.0273438H1.76539C0.794448 0.0273438 0 0.822618 0 1.79457V26.5064C0 27.4843 0.794448 28.2736 1.76539 28.2736H13.5194L11.402 24.6029L12.9761 23.6944ZM2.35382 8.85603H17.0654V10.033H2.35382V8.85603ZM2.35382 11.2099H17.0654V12.3868H2.35382V11.2099ZM2.35382 14.1522H10.0039V15.3291H2.35382V14.1522ZM2.35382 19.4487H8.23846V20.6256H2.35382V19.4487ZM8.30857 23.0352H2.42393V21.8583H8.30857V23.0352ZM10.0194 17.6833H2.36934V16.5064H10.0194V17.6833Z" fill="white"/>
<path d="M25.8932 23.0342C25.8932 22.6047 25.8461 22.1751 25.7519 21.7573L27.0054 21.0335L25.24 17.9734L23.9866 18.7031C23.3451 18.1147 22.5978 17.6851 21.7739 17.4262V15.9727H18.2431V17.4262C17.4252 17.6851 16.6719 18.1147 16.0364 18.7031L14.7771 17.9734L13.0117 21.0335L14.2652 21.7573C14.171 22.1751 14.1239 22.6047 14.1239 23.0342C14.1239 23.4697 14.171 23.8934 14.2652 24.3112L13.0117 25.035L14.7771 28.095L16.0364 27.3712C16.6719 27.9538 17.4252 28.3893 18.2431 28.6482V30.0958H21.7739V28.6482C22.5978 28.3893 23.3451 27.9538 23.9866 27.3712L25.24 28.095L27.0054 25.035L25.7519 24.3112C25.8461 23.8934 25.8932 23.4697 25.8932 23.0342ZM20.0085 25.9765C18.3903 25.9765 17.0662 24.6584 17.0662 23.0342C17.0662 21.416 18.3903 20.0919 20.0085 20.0919C21.6327 20.0919 22.9509 21.416 22.9509 23.0342C22.9509 24.6584 21.6327 25.9765 20.0085 25.9765Z" fill="white"/>
</svg>
